<svg version="1.1" id="Layer_1" xmlns="http://www.w3.org/2000/svg" xmlns:xlink="http://www.w3.org/1999/xlink" x="0px" y="0px"
	 width="100%" viewBox="0 0 500 500" enable-background="new 0 0 500 500" xml:space="preserve">
<path fill="#FF5C01" opacity="1.000000" stroke="none" 
	d="
M293.000000,501.000000 
	C195.333359,501.000000 98.166710,501.000000 1.000052,501.000000 
	C1.000035,334.333405 1.000035,167.666794 1.000017,1.000142 
	C167.666565,1.000094 334.333130,1.000094 500.999756,1.000047 
	C500.999847,167.666519 500.999847,334.333038 500.999939,500.999786 
	C431.833344,501.000000 362.666656,501.000000 293.000000,501.000000 
M460.426849,442.807709 
	C452.793060,452.650055 442.616119,456.551361 430.324066,456.538788 
	C334.329651,456.440582 238.335098,456.486542 142.340576,456.471619 
	C140.177887,456.471283 138.010010,456.341949 135.853378,456.165283 
	C120.467796,454.905212 107.311584,442.035309 106.170914,426.661560 
	C105.830154,422.068909 106.455811,417.358337 107.039780,412.752625 
	C108.372490,402.241608 109.953239,391.762054 111.303352,382.190460 
	C127.564156,380.901154 143.230942,380.375244 158.686630,378.286926 
	C192.722229,373.688080 225.103867,363.056000 256.281738,348.889984 
	C285.489990,335.618896 312.821350,319.273956 337.391602,298.380249 
	C344.605621,292.245697 345.801910,279.845551 336.884338,273.565918 
	C329.730988,268.528625 323.411285,262.307556 316.000793,255.998077 
	C334.031006,251.407028 351.146545,247.048874 368.845062,242.542282 
	C366.685547,265.091949 364.666443,286.773346 362.505005,308.440613 
	C361.679871,316.712067 365.751129,323.082336 372.860535,324.068848 
	C380.615906,325.144989 386.321045,320.391357 387.187256,311.779785 
	C389.504211,288.745178 391.710297,265.699371 393.925568,242.654617 
	C394.942078,232.080246 395.876953,221.498032 396.908691,210.268036 
	C352.263153,221.431305 308.167480,232.457077 263.047546,243.738968 
	C279.900330,258.205872 295.964478,271.995728 312.238068,285.965454 
	C310.307098,287.492188 308.916748,288.663940 307.454132,289.737274 
	C273.701050,314.506927 236.574158,332.422821 196.380692,343.942657 
	C162.972794,353.517731 129.035751,358.787445 94.236610,353.960785 
	C67.342354,350.230530 43.114704,340.692627 24.315283,320.019897 
	C22.631384,318.168182 20.084658,316.663208 17.664827,316.007202 
	C12.145760,314.510895 6.812047,317.085480 4.041298,321.906616 
	C1.346703,326.595276 1.915732,332.170563 5.858300,336.718536 
	C17.518467,350.169159 31.628754,360.468903 48.114536,366.962097 
	C60.564320,371.865631 73.557465,375.389557 86.711784,379.658325 
	C85.361290,389.071198 84.108894,399.471893 82.336372,409.783203 
	C79.282349,427.549469 82.004570,444.028839 93.109993,458.489227 
	C105.579758,474.726074 122.428680,481.436707 142.777390,481.394958 
	C238.938156,481.197693 335.099548,481.307709 431.260742,481.301208 
	C433.092834,481.301086 434.926544,481.250336 436.756744,481.164124 
	C471.900208,479.509521 496.441467,450.317169 491.755646,415.447327 
	C487.897888,386.739624 483.741241,358.072021 479.700470,329.388977 
	C472.478302,278.122772 465.266144,226.855133 458.003357,175.594681 
	C455.010712,154.472626 444.419922,138.336761 424.865723,129.522415 
	C416.137543,125.588058 406.211914,124.310165 396.430023,121.720825 
	C384.572845,63.422676 351.625275,26.069899 288.205719,21.044731 
	C222.482330,24.014612 188.186157,61.635380 175.124313,123.352325 
	C172.954117,123.487648 170.304260,123.633873 167.657303,123.820854 
	C141.501450,125.668602 118.713531,146.813126 115.098061,172.691437 
	C108.233749,221.823669 101.418839,270.962799 94.589172,320.099884 
	C93.553299,327.552612 97.820457,333.955841 104.509483,335.034729 
	C111.336205,336.135803 117.898109,331.080231 118.972885,323.642120 
	C121.377411,307.001160 123.655380,290.341949 125.992920,273.691284 
	C130.598450,240.885437 135.083755,208.061935 139.889603,175.285446 
	C141.468674,164.515884 147.954086,157.033081 157.428253,151.806229 
	C166.463043,146.821793 176.202148,148.177048 185.786346,148.028870 
	C195.676392,147.875961 200.663055,143.035049 200.605652,133.356857 
	C200.380402,95.380203 226.085297,60.277679 262.386169,48.989639 
	C300.888611,37.016998 343.519196,56.288555 361.933807,93.981384 
	C366.389191,103.101028 369.421600,112.611618 370.528442,123.157959 
	C368.007141,123.157959 366.023621,123.157967 364.040100,123.157967 
	C322.042511,123.157982 280.044861,123.142578 238.047348,123.194656 
	C235.412140,123.197922 232.662369,123.343224 230.165298,124.089600 
	C223.808716,125.989586 220.445267,132.994904 222.537186,139.306534 
	C224.472443,145.145493 229.055191,147.998016 236.659134,147.999313 
	C290.322723,148.008499 343.986359,147.973648 397.649933,148.020691 
	C417.140350,148.037766 430.627930,160.245422 433.021057,179.609863 
	C434.286774,189.851913 435.781219,200.066132 437.216156,210.286774 
	C446.867523,279.031067 456.463531,347.783264 466.268188,416.505737 
	C467.611237,425.919220 465.909576,434.330200 460.426849,442.807709 
z"/>
<path fill="#FFFDFC" opacity="1.000000" stroke="none" 
	d="
M460.640747,442.512146 
	C465.909576,434.330200 467.611237,425.919220 466.268188,416.505737 
	C456.463531,347.783264 446.867523,279.031067 437.216156,210.286774 
	C435.781219,200.066132 434.286774,189.851913 433.021057,179.609863 
	C430.627930,160.245422 417.140350,148.037766 397.649933,148.020691 
	C343.986359,147.973648 290.322723,148.008499 236.659134,147.999313 
	C229.055191,147.998016 224.472443,145.145493 222.537186,139.306534 
	C220.445267,132.994904 223.808716,125.989586 230.165298,124.089600 
	C232.662369,123.343224 235.412140,123.197922 238.047348,123.194656 
	C280.044861,123.142578 322.042511,123.157982 364.040100,123.157967 
	C366.023621,123.157967 368.007141,123.157959 370.528442,123.157959 
	C369.421600,112.611618 366.389191,103.101028 361.933807,93.981384 
	C343.519196,56.288555 300.888611,37.016998 262.386169,48.989639 
	C226.085297,60.277679 200.380402,95.380203 200.605652,133.356857 
	C200.663055,143.035049 195.676392,147.875961 185.786346,148.028870 
	C176.202148,148.177048 166.463043,146.821793 157.428253,151.806229 
	C147.954086,157.033081 141.468674,164.515884 139.889603,175.285446 
	C135.083755,208.061935 130.598450,240.885437 125.992920,273.691284 
	C123.655380,290.341949 121.377411,307.001160 118.972885,323.642120 
	C117.898109,331.080231 111.336205,336.135803 104.509483,335.034729 
	C97.820457,333.955841 93.553299,327.552612 94.589172,320.099884 
	C101.418839,270.962799 108.233749,221.823669 115.098061,172.691437 
	C118.713531,146.813126 141.501450,125.668602 167.657303,123.820854 
	C170.304260,123.633873 172.954117,123.487648 175.124313,123.352325 
	C188.186157,61.635380 222.482330,24.014612 288.205719,21.044731 
	C351.625275,26.069899 384.572845,63.422676 396.430023,121.720825 
	C406.211914,124.310165 416.137543,125.588058 424.865723,129.522415 
	C444.419922,138.336761 455.010712,154.472626 458.003357,175.594681 
	C465.266144,226.855133 472.478302,278.122772 479.700470,329.388977 
	C483.741241,358.072021 487.897888,386.739624 491.755646,415.447327 
	C496.441467,450.317169 471.900208,479.509521 436.756744,481.164124 
	C434.926544,481.250336 433.092834,481.301086 431.260742,481.301208 
	C335.099548,481.307709 238.938156,481.197693 142.777390,481.394958 
	C122.428680,481.436707 105.579758,474.726074 93.109993,458.489227 
	C82.004570,444.028839 79.282349,427.549469 82.336372,409.783203 
	C84.108894,399.471893 85.361290,389.071198 86.711784,379.658325 
	C73.557465,375.389557 60.564320,371.865631 48.114536,366.962097 
	C31.628754,360.468903 17.518467,350.169159 5.858300,336.718536 
	C1.915732,332.170563 1.346703,326.595276 4.041298,321.906616 
	C6.812047,317.085480 12.145760,314.510895 17.664827,316.007202 
	C20.084658,316.663208 22.631384,318.168182 24.315283,320.019897 
	C43.114704,340.692627 67.342354,350.230530 94.236610,353.960785 
	C129.035751,358.787445 162.972794,353.517731 196.380692,343.942657 
	C236.574158,332.422821 273.701050,314.506927 307.454132,289.737274 
	C308.916748,288.663940 310.307098,287.492188 312.238068,285.965454 
	C295.964478,271.995728 279.900330,258.205872 263.047546,243.738968 
	C308.167480,232.457077 352.263153,221.431305 396.908691,210.268036 
	C395.876953,221.498032 394.942078,232.080246 393.925568,242.654617 
	C391.710297,265.699371 389.504211,288.745178 387.187256,311.779785 
	C386.321045,320.391357 380.615906,325.144989 372.860535,324.068848 
	C365.751129,323.082336 361.679871,316.712067 362.505005,308.440613 
	C364.666443,286.773346 366.685547,265.091949 368.845062,242.542282 
	C351.146545,247.048874 334.031006,251.407028 316.000793,255.998077 
	C323.411285,262.307556 329.730988,268.528625 336.884338,273.565918 
	C345.801910,279.845551 344.605621,292.245697 337.391602,298.380249 
	C312.821350,319.273956 285.489990,335.618896 256.281738,348.889984 
	C225.103867,363.056000 192.722229,373.688080 158.686630,378.286926 
	C143.230942,380.375244 127.564156,380.901154 111.303352,382.190460 
	C109.953239,391.762054 108.372490,402.241608 107.039780,412.752625 
	C106.455811,417.358337 105.830154,422.068909 106.170914,426.661560 
	C107.311584,442.035309 120.467796,454.905212 135.853378,456.165283 
	C138.010010,456.341949 140.177887,456.471283 142.340576,456.471619 
	C238.335098,456.486542 334.329651,456.440582 430.324066,456.538788 
	C442.616119,456.551361 452.793060,452.650055 460.640747,442.512146 
z"/>
</svg>